<?xml version="1.0" encoding="UTF-8" standalone="no"?>
<!DOCTYPE svg PUBLIC "-//W3C//DTD SVG 1.1//EN"
 "http://www.w3.org/Graphics/SVG/1.1/DTD/svg11.dtd">
<!-- Generated by graphviz version 2.43.0 (0)
 -->
<!-- Title: classes Pages: 1 -->
<svg width="1293pt" height="410pt"
 viewBox="0.00 0.00 1293.00 410.00" xmlns="http://www.w3.org/2000/svg" xmlns:xlink="http://www.w3.org/1999/xlink">
<g id="graph0" class="graph" transform="scale(1 1) rotate(0) translate(4 406)">
<title>classes</title>
<polygon fill="white" stroke="transparent" points="-4,4 -4,-406 1289,-406 1289,4 -4,4"/>
<!-- contextuality.empirical_model.EmpiricalModel -->
<g id="node1" class="node">
<title>contextuality.empirical_model.EmpiricalModel</title>
<polygon fill="none" stroke="blue" points="0.5,-177 0.5,-198 609.5,-198 609.5,-177 0.5,-177"/>
<text text-anchor="start" x="247" y="-184.8" font-family="Courier,monospace" font-weight="bold" font-size="14.00">EmpiricalModel</text>
<polygon fill="none" stroke="blue" points="0.5,-96 0.5,-177 609.5,-177 609.5,-96 0.5,-96"/>
<text text-anchor="start" x="3.5" y="-162.8" font-family="Courier,monospace" font-size="14.00">is_deterministic : bool</text>
<text text-anchor="start" x="3.5" y="-147.8" font-family="Courier,monospace" font-size="14.00">is_valid : bool</text>
<text text-anchor="start" x="3.5" y="-132.8" font-family="Courier,monospace" font-size="14.00">measurement_scenario : MeasurementScenario</text>
<text text-anchor="start" x="3.5" y="-117.8" font-family="Courier,monospace" font-size="14.00">mvector : ndarray</text>
<text text-anchor="start" x="3.5" y="-102.8" font-family="Courier,monospace" font-size="14.00">vector : ndarray &#160;&#160;&#160;&#160;&#160;&#160;&#160;</text>
<polygon fill="none" stroke="blue" points="0.5,0 0.5,-96 609.5,-96 609.5,0 0.5,0"/>
<text text-anchor="start" x="3.5" y="-81.8" font-family="Courier,monospace" font-size="14.00">compute_cf(eta: float, solver: str, verbose: bool): Dict[str, float]</text>
<text text-anchor="start" x="3.5" y="-66.8" font-family="Courier,monospace" font-size="14.00">compute_sf(solver: str, verbose: bool): Dict[str, Any]</text>
<text text-anchor="start" x="3.5" y="-51.8" font-family="Courier,monospace" font-size="14.00">get_signalling_variables(): Tuple[dict, ndarray]</text>
<text text-anchor="start" x="3.5" y="-36.8" font-family="Courier,monospace" font-size="14.00">maximum_incompatibility_of_marginals(): float</text>
<text text-anchor="start" x="3.5" y="-21.8" font-family="Courier,monospace" font-size="14.00">probability_outcome(outcome: int, ctx: List[int], observable: int): float</text>
<text text-anchor="start" x="3.5" y="-6.8" font-family="Courier,monospace" font-size="14.00">quantum_realisation(rho: ndarray, meas: ndarray): None &#160;&#160;&#160;&#160;&#160;&#160;&#160;</text>
</g>
<!-- contextuality.measurement_scenario.GeneralizedMeasurementScenario -->
<g id="node2" class="node">
<title>contextuality.measurement_scenario.GeneralizedMeasurementScenario</title>
<polygon fill="none" stroke="black" points="627.5,-124 627.5,-145 914.5,-145 914.5,-124 627.5,-124"/>
<text text-anchor="start" x="647" y="-131.8" font-family="Courier,monospace" font-weight="bold" font-size="14.00">GeneralizedMeasurementScenario</text>
<polygon fill="none" stroke="black" points="627.5,-73 627.5,-124 914.5,-124 914.5,-73 627.5,-73"/>
<text text-anchor="start" x="630.5" y="-109.8" font-family="Courier,monospace" font-size="14.00">ME : dict</text>
<text text-anchor="start" x="630.5" y="-94.8" font-family="Courier,monospace" font-size="14.00">PE : dict</text>
<text text-anchor="start" x="630.5" y="-79.8" font-family="Courier,monospace" font-size="14.00">incidence_matrix : ndarray &#160;&#160;&#160;&#160;&#160;&#160;&#160;</text>
<polygon fill="none" stroke="black" points="627.5,-52 627.5,-73 914.5,-73 914.5,-52 627.5,-52"/>
<text text-anchor="start" x="630.5" y="-58.8" font-family="Courier,monospace" font-size="14.00"> &#160;&#160;&#160;&#160;&#160;&#160;&#160;</text>
</g>
<!-- contextuality.measurement_scenario.MeasurementScenario -->
<g id="node3" class="node">
<title>contextuality.measurement_scenario.MeasurementScenario</title>
<polygon fill="none" stroke="black" points="499.5,-381 499.5,-402 1042.5,-402 1042.5,-381 499.5,-381"/>
<text text-anchor="start" x="692.5" y="-388.8" font-family="Courier,monospace" font-weight="bold" font-size="14.00">MeasurementScenario</text>
<polygon fill="none" stroke="black" points="499.5,-255 499.5,-381 1042.5,-381 1042.5,-255 499.5,-255"/>
<text text-anchor="start" x="502.5" y="-366.8" font-family="Courier,monospace" font-size="14.00">M : List[List[Union[Symbol, int]]]</text>
<text text-anchor="start" x="502.5" y="-351.8" font-family="Courier,monospace" font-size="14.00">O : List[int]</text>
<text text-anchor="start" x="502.5" y="-336.8" font-family="Courier,monospace" font-size="14.00">X : List[Union[Symbol, int]]</text>
<text text-anchor="start" x="502.5" y="-321.8" font-family="Courier,monospace" font-size="14.00">all_outcomes : List[Tuple[int]]</text>
<text text-anchor="start" x="502.5" y="-306.8" font-family="Courier,monospace" font-size="14.00">incidence_matrix : ndarray</text>
<text text-anchor="start" x="502.5" y="-291.8" font-family="Courier,monospace" font-size="14.00">incidence_matrix_constrained : ndarray</text>
<text text-anchor="start" x="502.5" y="-276.8" font-family="Courier,monospace" font-size="14.00">incidence_matrix_signalling : ndarray</text>
<text text-anchor="start" x="502.5" y="-261.8" font-family="Courier,monospace" font-size="14.00">outcomes_global : List[List[int]] &#160;&#160;&#160;&#160;&#160;&#160;&#160;</text>
<polygon fill="none" stroke="black" points="499.5,-234 499.5,-255 1042.5,-255 1042.5,-234 499.5,-234"/>
<text text-anchor="start" x="502.5" y="-240.8" font-family="Courier,monospace" font-size="14.00">generate_deterministic(positions: Iterable[int]): ndarray &#160;&#160;&#160;&#160;&#160;&#160;&#160;</text>
</g>
<!-- contextuality.measurement_scenario.GeneralizedMeasurementScenario&#45;&gt;contextuality.measurement_scenario.MeasurementScenario -->
<g id="edge1" class="edge">
<title>contextuality.measurement_scenario.GeneralizedMeasurementScenario&#45;&gt;contextuality.measurement_scenario.MeasurementScenario</title>
<path fill="none" stroke="black" d="M770.5,-145.75C770.5,-168.36 770.5,-196.5 770.5,-223.39"/>
<polygon fill="none" stroke="black" points="767,-223.62 770.5,-233.62 774,-223.62 767,-223.62"/>
</g>
<!-- contextuality.measurement_scenario.MeasurementScenarioImplementations -->
<g id="node4" class="node">
<title>contextuality.measurement_scenario.MeasurementScenarioImplementations</title>
<polygon fill="none" stroke="black" points="932.5,-124 932.5,-145 1285.5,-145 1285.5,-124 932.5,-124"/>
<text text-anchor="start" x="968.5" y="-131.8" font-family="Courier,monospace" font-weight="bold" font-size="14.00">MeasurementScenarioImplementations</text>
<polygon fill="none" stroke="black" points="932.5,-103 932.5,-124 1285.5,-124 1285.5,-103 932.5,-103"/>
<text text-anchor="start" x="935.5" y="-109.8" font-family="Courier,monospace" font-size="14.00"> &#160;&#160;&#160;&#160;&#160;&#160;&#160;</text>
<polygon fill="none" stroke="black" points="932.5,-52 932.5,-103 1285.5,-103 1285.5,-52 932.5,-52"/>
<text text-anchor="start" x="935.5" y="-88.8" font-family="Courier,monospace" font-size="14.00">CHSH(): MeasurementScenario</text>
<text text-anchor="start" x="935.5" y="-73.8" font-family="Courier,monospace" font-size="14.00">KCBS(): MeasurementScenario</text>
<text text-anchor="start" x="935.5" y="-58.8" font-family="Courier,monospace" font-size="14.00">PeresMermin(): MeasurementScenario &#160;&#160;&#160;&#160;&#160;&#160;&#160;</text>
</g>
</g>
</svg>
